<?xml version="1.0" standalone="no"?><svg t="1743001547570" class="icon" viewBox="0 0 1024 1024" version="1.1" xmlns="http://www.w3.org/2000/svg" p-id="3500" xmlns:xlink="http://www.w3.org/1999/xlink" width="200" height="200"><path d="M441.67033 998.681319a70.32967 25.318681 0 1 0 140.65934 0 70.32967 25.318681 0 1 0-140.65934 0Z" fill="#333333" p-id="3501"></path><path d="M495.120879 503.56044l33.758242 0 0 506.373626-33.758242 0 0-506.373626Z" fill="#333333" p-id="3502"></path><path d="M512 281.318681m-281.318681 0a281.318681 281.318681 0 1 0 562.637362 0 281.318681 281.318681 0 1 0-562.637362 0Z" fill="#333333" p-id="3503"></path><path d="M512 281.318681m-225.054945 0a225.054945 225.054945 0 1 0 450.10989 0 225.054945 225.054945 0 1 0-450.10989 0Z" fill="#0FCABF" p-id="3504"></path></svg>